<svg width="1017" height="493" viewBox="0 0 1017 493" fill="none" xmlns="http://www.w3.org/2000/svg">
<path d="M304.252 491.986C200.01 493.681 152.211 491.816 190.009 487.748C227.977 483.68 189.84 483.172 131.023 483.68C72.2069 484.189 46.2734 479.104 133.227 473.849C220.18 468.595 539.01 463.171 502.398 469.951C465.786 476.731 438.835 478.256 461.04 480.799C483.244 483.341 447.649 489.613 304.252 491.986Z" fill="#99ADF9"/>
<path d="M738.342 458.595C630.201 459.612 580.707 462.832 620.031 466.053C659.525 469.273 641.727 470.46 580.538 471.477C519.348 472.494 471.21 478.935 561.384 482.324C651.728 485.545 982.253 482.663 944.115 476.392C905.978 470.121 878.01 469.273 900.893 465.883C924.114 462.662 887.163 457.239 738.342 458.595Z" fill="#99ADF9"/>
<path d="M479.855 470.629H163.229C160.517 470.629 158.144 468.425 158.144 465.544V452.662C158.144 449.95 160.347 447.577 163.229 447.577H480.024C482.736 447.577 485.109 449.78 485.109 452.662V465.544C484.94 468.425 482.736 470.629 479.855 470.629Z" fill="#E1ECFF"/>
<path d="M486.295 470.629H288.828C286.116 470.629 283.743 468.425 283.743 465.544V452.662C283.743 449.95 285.946 447.577 288.828 447.577H486.295C489.007 447.577 491.38 449.78 491.38 452.662V465.544C491.38 468.425 489.177 470.629 486.295 470.629Z" fill="#CDE0FC"/>
<path d="M398.833 447.916H168.313C164.584 447.916 161.194 445.543 159.838 441.983L107.293 296.722C105.09 290.79 109.497 284.688 115.768 284.688H346.288C350.017 284.688 353.407 287.061 354.763 290.62L407.308 435.882C409.342 441.645 405.105 447.916 398.833 447.916Z" fill="#CDE0FC"/>
<path d="M384.765 439.61H174.077C170.348 439.61 166.958 437.237 165.602 433.678L119.159 305.027C116.955 299.095 121.362 292.993 127.634 292.993H338.492C342.221 292.993 345.611 295.366 346.967 298.925L393.41 427.576C395.444 433.339 391.037 439.61 384.765 439.61Z" fill="#FF8D76"/>
<path d="M194.755 462.493H172.72C171.873 462.493 171.195 461.815 171.195 460.967V457.238C171.195 456.391 171.873 455.713 172.72 455.713H194.755C195.603 455.713 196.281 456.391 196.281 457.238V460.967C196.281 461.815 195.603 462.493 194.755 462.493Z" fill="#CDE0FC"/>
<path d="M225.435 462.493H203.4C202.553 462.493 201.875 461.815 201.875 460.967V457.238C201.875 456.391 202.553 455.713 203.4 455.713H225.435C226.283 455.713 226.961 456.391 226.961 457.238V460.967C227.13 461.815 226.283 462.493 225.435 462.493Z" fill="#CDE0FC"/>
<path d="M212.214 426.559H333.407C339.509 426.559 342.899 419.44 339.17 414.694L259.844 313.842C256.454 309.435 249.504 310.452 247.301 315.537L205.434 416.389C203.4 421.135 206.96 426.559 212.214 426.559Z" fill="#FEC272"/>
<path d="M247.979 341.809L262.386 385.54C263.064 387.743 265.268 389.269 267.641 389.269H269.844C272.726 389.269 274.76 387.065 274.59 384.184L270.692 340.792C270.522 338.08 268.149 335.876 265.437 335.876L252.725 335.537C249.165 335.368 246.792 338.588 247.979 341.809Z" fill="white"/>
<path d="M279.845 402.998C280.184 407.405 276.794 410.965 272.387 410.965C267.98 410.965 264.081 407.405 263.742 402.998C263.403 398.591 266.793 395.032 271.2 395.032C275.607 395.032 279.506 398.591 279.845 402.998Z" fill="white"/>
<path d="M74.0713 262.653L94.9198 279.094C94.9198 279.094 100.513 271.297 112.548 267.229C124.582 263.161 140.854 266.212 140.854 266.212L149.329 218.413C149.329 218.413 139.159 250.279 124.243 252.483C109.327 254.686 97.1233 234.685 97.1233 234.685C97.1233 234.685 105.937 256.551 97.4623 263.161C88.6483 269.941 74.0713 262.653 74.0713 262.653Z" fill="#1C3177"/>
<path d="M414.597 402.151L431.208 427.406L474.431 377.234L431.208 443L414.597 402.151Z" fill="#E1EAF6"/>
<path d="M439.344 242.821L477.312 175.021L448.497 244.685L439.344 242.821Z" fill="#E1EAF6"/>
<path d="M631.896 273.839C629.354 277.06 625.964 280.789 622.404 284.857C603.759 305.197 573.927 333.164 558.503 341.47C540.027 351.301 523.755 353.674 516.128 342.826C508.5 331.978 507.992 323.503 519.687 310.451C531.383 297.4 575.283 239.261 598.505 220.277C614.946 206.887 635.456 212.989 643.083 226.21C650.88 239.092 647.66 254.347 631.896 273.839Z" fill="#F774B9"/>
<path d="M622.404 284.688C603.759 305.028 573.927 332.995 558.502 341.301C540.027 351.132 523.755 353.505 516.127 342.657C544.773 340.284 599.013 278.925 599.013 278.925L622.404 284.688Z" fill="#F261B4"/>
<path d="M553.418 334.86C537.654 365.031 509.856 346.216 488.16 325.029C466.464 303.841 442.226 270.111 438.666 260.11C437.48 256.89 437.141 253.5 437.48 250.11C437.988 243.16 441.548 237.058 446.463 237.058C453.752 237.058 510.873 275.365 529.857 291.129C543.926 302.824 554.435 312.825 555.791 323.334C556.13 327.232 555.452 330.961 553.418 334.86Z" fill="#F774B9"/>
<path d="M553.418 334.86C537.654 365.031 509.856 346.216 488.16 325.029C466.464 303.841 442.226 270.111 438.666 260.11C437.48 256.89 437.141 253.5 437.48 250.11C441.378 250.618 445.446 252.822 449.514 257.229C449.514 257.229 498.161 320.961 522.738 333.504C531.383 337.911 543.587 332.487 555.621 323.334C556.13 327.232 555.452 330.961 553.418 334.86Z" fill="#F261B4"/>
<path d="M452.226 259.262C450.531 267.568 446.802 287.569 439.683 290.789C432.394 294.01 419.512 290.45 416.292 282.145C413.071 273.67 421.377 262.652 429.513 252.143C437.649 241.634 442.734 237.058 447.31 237.397C451.887 237.736 453.921 250.279 452.226 259.262Z" fill="#F774B9"/>
<path d="M417.139 277.399C417.139 278.246 416.292 273.161 417.139 278.246C417.987 283.331 426.123 282.823 427.309 280.619C431.208 273.67 445.785 243.329 443.073 240.956C440.361 238.583 417.648 263.161 417.139 277.399Z" fill="#FF97C9"/>
<path d="M800.04 407.575C800.04 407.575 841.737 404.016 861.569 370.963C881.4 337.911 849.534 260.449 847.67 229.77C845.805 199.09 871.061 175.021 897.503 199.09C923.945 223.159 923.267 302.485 913.775 339.606C904.113 376.896 875.468 405.372 837.33 418.762C810.38 428.254 794.955 422.322 794.955 422.322L800.04 407.575Z" fill="#F774B9"/>
<path d="M680.034 424.186C670.881 453.849 646.642 469.273 620.878 471.985C595.114 474.697 549.349 476.731 544.942 473.85C542.908 472.494 541.891 469.612 542.23 466.392C542.569 462.493 544.773 457.917 549.01 454.357C556.807 447.747 584.775 447.747 584.775 447.747C584.775 447.747 579.69 447.069 572.401 441.475C565.113 435.712 547.993 424.356 561.553 382.32C575.113 340.284 614.946 330.622 654.609 344.521C663.762 347.742 670.542 355.03 675.118 364.183C684.271 381.642 685.458 406.728 680.034 424.186Z" fill="#F774B9"/>
<path d="M610.2 447.238C610.2 448.764 608.844 449.781 607.488 449.781C607.149 449.781 567.994 449.103 555.96 452.493C545.959 455.374 545.451 461.646 545.281 465.544V466.392C544.942 469.782 546.807 470.121 547.146 470.121C548.671 470.29 549.688 471.646 549.519 473.172C549.349 474.528 548.163 475.545 546.807 475.545C546.637 475.545 546.637 475.545 546.468 475.545C543.417 475.206 539.179 472.324 539.857 465.883V465.035C540.196 460.798 540.874 451.137 554.434 447.238C559.35 445.882 568.333 445.035 577.317 444.696C572.91 443.34 569.011 441.814 566.299 439.95C552.061 429.949 549.519 413.846 557.655 384.523C563.757 362.657 576.13 350.623 588.673 343.843C590.029 343.165 591.724 343.674 592.233 345.199C592.741 346.386 592.233 347.742 591.046 348.42C579.69 354.522 568.333 365.709 562.74 385.879C554.095 417.237 559.18 428.254 569.35 435.543C578.842 442.153 607.318 444.357 607.657 444.357C609.013 444.526 610.2 445.713 610.2 447.238Z" fill="#F774B9"/>
<path d="M680.034 424.186C670.881 453.849 646.642 469.273 620.878 471.985C595.114 474.697 549.349 476.731 544.942 473.85C542.908 472.494 541.891 469.612 542.23 466.392C551.722 467.409 586.809 469.612 629.862 448.594C670.711 428.763 675.118 381.642 675.288 364.014C684.271 381.642 685.458 406.728 680.034 424.186Z" fill="#F774B9"/>
<path d="M561.384 396.558C561.384 396.558 574.605 417.067 593.589 428.763C612.573 440.458 623.082 442.831 623.082 442.831C623.082 442.831 605.962 446.73 589.521 446.391C573.079 446.052 560.706 436.729 556.468 421.813C552.061 406.728 561.384 396.558 561.384 396.558Z" fill="#F774B9"/>
<path d="M684.61 467.07C682.068 467.07 679.695 467.07 677.322 467.07C671.389 467.07 665.457 466.9 659.863 466.561C650.541 466.053 641.896 465.036 633.76 463.68C584.097 454.866 557.316 428.424 559.35 371.641C561.045 325.537 575.113 270.28 585.453 235.363C586.47 231.973 587.317 228.922 588.334 226.041C591.724 214.854 594.606 206.718 595.792 202.819C596.301 201.294 596.64 200.446 596.64 200.446L739.359 175.53L740.715 175.191C740.715 175.191 745.8 186.886 753.258 205.362C754.614 208.582 755.97 211.972 757.326 215.532C758.851 219.43 760.546 223.498 762.241 227.905C774.276 258.076 789.192 297.061 801.226 332.826C804.786 343.335 808.006 353.505 810.888 362.997C813.6 371.98 815.973 380.625 817.837 388.422C830.38 439.102 766.648 466.222 684.61 467.07Z" fill="#FF97C9"/>
<path d="M742.071 448.594H710.883C701.052 448.594 684.78 449.103 679.864 458.425C678.339 461.137 677.661 464.188 677.491 467.07C671.559 467.07 665.626 466.9 660.033 466.561L658.677 459.442C658.677 459.442 658.677 459.442 665.457 450.798C672.067 442.492 693.594 398.083 694.78 395.88C694.272 397.405 686.305 419.779 699.696 434.017C712.747 448.255 739.189 448.594 742.071 448.594Z" fill="#F774B9"/>
<path d="M642.235 458.934C642.066 459.103 641.896 459.103 641.727 459.273C639.354 460.798 636.642 462.324 633.76 463.68C583.927 454.866 557.316 428.424 559.35 371.641C560.706 335.707 569.52 294.349 578.164 261.297C580.707 251.805 583.08 243.16 585.453 235.363C591.724 229.261 600.708 223.837 612.912 223.837C641.218 223.837 657.321 231.634 668.847 320.622C680.034 408.762 665.457 443.17 642.235 458.934Z" fill="#FFBDE0"/>
<path opacity="0.5" d="M642.235 458.934C642.066 459.103 641.896 459.103 641.727 459.273C639.354 460.798 636.642 462.324 633.76 463.68C583.927 454.866 557.316 428.424 559.35 371.641C560.706 335.707 569.52 294.349 578.164 261.297C576.469 285.705 574.774 348.928 599.013 400.456C613.59 431.475 629.523 449.103 642.235 458.934Z" fill="#F9BC93"/>
<path d="M753.427 205.362C742.918 212.65 721.731 225.024 693.424 232.312C682.576 235.024 670.711 237.058 657.999 237.736C616.81 239.94 596.979 231.634 588.334 225.702C591.724 214.515 594.606 206.379 595.792 202.48C604.098 205.192 625.285 210.108 660.541 206.379C666.813 205.701 673.084 204.514 679.186 202.989C704.611 196.548 726.985 183.327 739.359 175.021L740.715 174.852C740.884 175.021 745.8 186.886 753.427 205.362Z" fill="#738DE0"/>
<path d="M693.425 232.312C682.577 235.024 670.712 237.058 657.999 237.736C616.81 239.939 596.979 231.634 588.334 225.702C591.724 214.515 594.606 206.378 595.792 202.48C604.098 205.192 625.285 210.107 660.542 206.378C666.813 205.7 673.085 204.514 679.187 202.988L693.425 232.312Z" fill="#5A7FDB"/>
<path d="M628.845 245.533C628.845 246.55 628.845 247.567 628.675 248.584C627.319 259.093 619.014 267.229 608.844 267.229C597.826 267.229 588.843 257.398 588.843 245.363C588.843 239.77 590.707 234.685 594.097 230.787C597.826 226.38 603.081 223.667 608.844 223.667C619.861 223.837 628.845 233.498 628.845 245.533Z" fill="#FCBD92"/>
<path d="M628.845 245.533C628.845 246.55 628.845 247.567 628.675 248.584C625.116 252.991 619.692 255.703 613.929 255.703C602.911 255.703 593.928 245.872 593.928 234.007C593.928 232.99 593.928 231.973 594.097 230.956C597.826 226.549 603.081 223.837 608.844 223.837C619.861 223.837 628.845 233.498 628.845 245.533Z" fill="#FFD3B3"/>
<path d="M607.488 250.279C614.509 250.279 620.2 247.547 620.2 244.177C620.2 240.807 614.509 238.075 607.488 238.075C600.467 238.075 594.775 240.807 594.775 244.177C594.775 247.547 600.467 250.279 607.488 250.279Z" fill="#1C3177"/>
<path d="M604.437 264.687V248.584C604.437 247.228 605.624 246.042 607.149 246.042C608.675 246.042 609.861 247.228 609.861 248.584V264.687C609.861 266.043 608.675 267.229 607.149 267.229C605.624 267.229 604.437 266.043 604.437 264.687Z" fill="#1C3177"/>
<path d="M801.396 332.825C796.989 337.063 791.056 340.622 783.429 339.605C763.258 336.893 765.462 328.249 761.563 308.078C757.665 287.908 729.358 290.281 731.731 250.618C733.257 224.176 748.003 217.226 757.665 215.701C759.19 219.599 760.885 223.667 762.58 228.074C774.445 258.076 789.361 297.061 801.396 332.825Z" fill="#F774B9"/>
<path d="M815.634 424.186C806.481 453.849 782.242 469.273 756.478 471.985C730.714 474.697 684.949 476.731 680.542 473.85C678.508 472.494 677.491 469.612 677.83 466.392C678.169 462.493 680.373 457.917 684.61 454.357C692.407 447.747 720.375 447.747 720.375 447.747C720.375 447.747 715.29 447.069 708.001 441.475C700.713 435.712 683.593 424.356 697.153 382.32C710.713 340.284 750.546 330.622 790.209 344.521C799.362 347.742 806.142 355.03 810.718 364.183C819.871 381.642 821.058 406.728 815.634 424.186Z" fill="#FF97C9"/>
<path d="M745.8 447.238C745.8 448.764 744.444 449.781 743.088 449.781C742.749 449.781 703.595 449.103 691.56 452.493C681.56 455.374 681.051 461.646 680.882 465.544V466.392C680.543 469.782 682.407 470.121 682.746 470.121C684.272 470.29 685.289 471.646 685.119 473.172C684.95 474.528 683.763 475.545 682.407 475.545C682.238 475.545 682.238 475.545 682.068 475.545C679.017 475.206 674.78 472.324 675.458 465.883V465.035C675.797 460.798 676.475 451.137 690.035 447.238C694.95 445.882 703.934 445.035 712.917 444.696C708.51 443.34 704.612 441.814 701.9 439.95C687.662 429.949 685.119 413.846 693.255 384.523C699.357 362.657 711.731 350.623 724.274 343.843C725.63 343.165 727.325 343.674 727.833 345.199C728.342 346.386 727.833 347.742 726.647 348.42C715.29 354.522 703.934 365.709 698.34 385.879C689.696 417.237 694.781 428.254 704.951 435.543C714.443 442.153 742.919 444.357 743.258 444.357C744.614 444.526 745.8 445.713 745.8 447.238Z" fill="#F774B9"/>
<path d="M815.634 424.186C806.481 453.849 782.242 469.273 756.478 471.985C730.714 474.697 684.949 476.731 680.542 473.85C678.508 472.494 677.491 469.612 677.83 466.392C687.322 467.409 722.409 469.612 765.462 448.594C806.311 428.763 810.718 381.642 810.888 364.014C819.871 381.642 821.058 406.728 815.634 424.186Z" fill="#FF8AC7"/>
<path d="M696.984 396.558C696.984 396.558 710.205 417.067 729.189 428.763C748.173 440.458 758.682 442.831 758.682 442.831C758.682 442.831 741.563 446.73 725.121 446.391C708.68 446.052 696.306 436.729 692.068 421.813C687.661 406.728 696.984 396.558 696.984 396.558Z" fill="#FF8AC7"/>
<path d="M661.219 459.442C661.219 459.442 658.507 463.002 660.711 468.426C662.914 473.85 662.575 479.613 657.151 482.325C654.439 483.681 644.947 483.85 635.286 483.681C634.269 483.681 633.082 483.681 632.065 483.511C626.302 483.342 620.878 483.003 616.81 482.664C615.285 482.494 613.929 482.494 612.912 482.325C612.742 482.325 612.742 482.325 612.573 482.325C605.623 481.647 599.691 477.07 599.691 470.629C599.691 469.104 600.03 467.409 600.877 465.714C604.945 456.73 622.065 449.442 622.065 449.442C622.065 449.442 636.981 426.051 647.32 379.608C657.66 333.165 657.151 312.486 659.016 289.942C660.202 276.382 660.372 251.635 686.983 248.923C702.408 247.398 711.9 251.974 717.154 260.11C721.053 266.043 722.917 273.84 723.426 282.654C724.782 303.841 721.222 322.825 706.306 368.251C691.39 413.847 661.219 459.442 661.219 459.442Z" fill="#FF97C9"/>
<path d="M661.219 459.442C661.219 459.442 658.507 463.002 660.711 468.426C662.914 473.85 662.575 479.613 657.151 482.325C654.439 483.681 644.947 483.85 635.286 483.681C634.269 483.681 633.082 483.681 632.065 483.511C626.302 483.342 620.878 483.003 616.81 482.664C615.285 482.494 613.929 482.494 612.912 482.325C612.742 482.325 612.742 482.325 612.573 482.325C605.623 481.647 599.691 477.07 599.691 470.629C602.911 470.29 606.471 470.29 609.861 470.629C618.505 471.477 645.964 475.206 648.676 469.273C651.388 463.341 647.32 456.222 647.32 456.222C647.32 456.222 667.152 421.135 685.627 376.048C703.086 333.334 715.968 267.229 717.154 260.28C721.053 266.212 722.917 274.009 723.426 282.823C724.782 304.011 721.222 322.995 706.306 368.421C691.39 413.847 661.219 459.442 661.219 459.442Z" fill="#FF8AC7"/>
<path d="M652.236 486.054C643.761 486.054 613.082 485.206 607.997 484.189C604.607 483.511 601.556 481.138 599.522 477.918C597.318 474.528 596.81 470.46 597.827 466.392C599.861 458.595 616.641 450.12 620.031 448.425C621.387 447.747 622.913 448.255 623.591 449.611C624.269 450.967 623.76 452.493 622.404 453.171C614.946 456.73 604.098 463.68 603.081 467.578C602.403 470.121 602.912 472.663 604.268 474.867C605.454 476.901 607.319 478.257 609.183 478.765C614.099 479.782 650.88 480.799 653.931 480.46C655.626 480.291 658.847 478.935 659.355 474.528C659.864 470.629 657.321 464.697 656.304 462.832C655.796 461.985 655.965 460.798 656.474 459.951C656.474 459.781 663.762 449.95 675.288 430.797C687.492 410.626 702.578 371.641 714.612 328.758C726.816 285.874 716.307 263.33 716.138 263.161C715.46 261.805 715.968 260.28 717.324 259.602C718.68 258.924 720.206 259.432 720.884 260.788C721.392 261.805 732.41 285.196 719.697 330.283C707.493 373.506 692.238 413.169 679.695 433.678C670.373 448.933 663.932 458.425 661.559 461.815C662.745 464.527 665.118 470.29 664.44 475.206C663.593 482.155 658.508 485.545 654.101 485.884C653.931 486.054 653.253 486.054 652.236 486.054Z" fill="#F774B9"/>
<path d="M623.251 458.934C623.251 458.934 617.149 462.663 615.624 469.104C614.437 474.867 616.302 481.308 616.81 482.833C615.285 482.664 613.929 482.664 612.912 482.494C612.064 479.613 610.878 473.85 612.064 468.256C613.759 460.459 621.048 456.052 621.387 455.883C622.234 455.374 623.421 455.713 623.929 456.561C624.268 457.239 624.099 458.425 623.251 458.934Z" fill="#F774B9"/>
<path d="M640.71 459.781C640.54 459.951 635.964 463.171 634.947 470.629C633.93 478.426 635.455 481.986 635.455 481.986C635.625 482.494 635.625 483.172 635.286 483.681C634.269 483.681 633.082 483.681 632.065 483.511C631.896 483.003 630.031 478.935 631.218 470.121C632.404 460.798 638.337 456.9 638.506 456.73C639.354 456.222 640.371 456.391 641.049 457.239C641.727 458.086 641.388 459.273 640.71 459.781Z" fill="#F774B9"/>
<path d="M740.884 175.021C740.884 175.021 736.986 178.58 729.697 183.835C722.409 189.089 689.526 207.904 645.964 209.26C609.522 210.446 556.638 210.107 539.688 173.326C536.298 166.037 534.433 157.223 534.264 146.884C533.416 83.83 609.013 59.761 639.693 58.9135C672.576 58.066 706.984 61.795 720.714 84.3385C727.494 95.5255 733.426 121.628 736.477 140.104C739.528 158.918 740.884 175.021 740.884 175.021Z" fill="#FF97C9"/>
<path d="M638.676 63.1511C634.269 68.2361 628.506 71.2871 622.743 73.1516C607.318 78.0671 590.707 74.5076 590.707 74.5076C590.707 74.5076 589.012 54.8456 589.182 44.3366C589.351 40.0991 589.69 37.0481 590.538 34.8446C591.894 31.4546 593.928 30.0986 597.148 29.7596C602.572 29.2511 638.676 63.1511 638.676 63.1511Z" fill="#FF97C9"/>
<path d="M619.183 69.4226C605.454 67.5581 595.453 70.9481 595.453 70.9481C595.453 70.9481 592.402 54.8456 592.572 46.5401C592.572 43.1501 593.08 40.7771 593.758 38.9126C596.131 40.7771 600.708 44.8451 606.81 52.1336C612.742 59.5916 616.98 66.0326 619.183 69.4226Z" fill="#FFBDE0"/>
<path d="M726.646 99.7631L708.51 92.6441L667.491 76.5416C667.491 76.5416 672.237 43.3196 679.864 32.4716C679.864 32.3021 680.034 32.3021 680.034 32.1326C687.831 21.6236 695.119 22.4711 698.34 27.5561C701.56 32.6411 714.781 62.1341 720.205 78.2366C725.799 94.6781 726.646 99.7631 726.646 99.7631Z" fill="#FF97C9"/>
<path d="M704.611 70.4397L674.949 68.5752C674.949 68.5752 678.339 46.0317 683.932 37.3872C686.136 36.8787 688.339 37.2177 690.373 39.2517C695.289 44.3367 702.069 61.1172 704.103 68.4057C704.272 68.9142 704.442 69.7617 704.611 70.4397Z" fill="#FFBDE0"/>
<path d="M681.051 136.883C679.864 136.883 678.678 136.036 678.508 134.849C678.169 133.324 679.017 131.968 680.542 131.629L707.323 125.188C708.849 124.849 710.205 125.696 710.544 127.222C710.883 128.747 710.035 130.103 708.51 130.442L681.729 136.883C681.559 136.714 681.22 136.883 681.051 136.883Z" fill="#F774B9"/>
<path d="M707.154 160.274C706.984 160.274 706.815 160.274 706.645 160.274L681.898 155.359C680.373 155.02 679.525 153.664 679.695 152.138C680.034 150.613 681.39 149.765 682.915 149.935L707.662 154.85C709.188 155.189 710.035 156.545 709.866 158.071C709.527 159.427 708.51 160.274 707.154 160.274Z" fill="#F774B9"/>
<path d="M541.044 152.986C539.688 152.986 538.501 151.969 538.332 150.613C538.162 149.088 539.179 147.732 540.705 147.562L565.282 144.681C566.808 144.511 568.164 145.528 568.333 147.054C568.503 148.579 567.486 149.935 565.96 150.105L541.383 152.986C541.213 152.986 541.213 152.986 541.044 152.986Z" fill="#F774B9"/>
<path d="M565.452 132.985C565.113 132.985 564.943 132.985 564.604 132.816L540.366 124.51C539.01 124.002 538.162 122.476 538.671 121.12C539.179 119.764 540.705 118.917 542.061 119.425L566.299 127.731C567.655 128.239 568.503 129.765 567.994 131.121C567.486 132.307 566.469 132.985 565.452 132.985Z" fill="#F774B9"/>
<path d="M684.949 71.6262H667.83C666.304 71.6262 665.118 70.4396 665.118 68.9141C665.118 67.3886 666.304 66.2021 667.83 66.2021H684.949C686.475 66.2021 687.661 67.3886 687.661 68.9141C687.661 70.4396 686.475 71.6262 684.949 71.6262Z" fill="#F774B9"/>
<path d="M624.607 71.6262H607.488C605.962 71.6262 604.776 70.4396 604.776 68.9141C604.776 67.3886 605.962 66.2021 607.488 66.2021H624.607C626.133 66.2021 627.319 67.3886 627.319 68.9141C627.15 70.4396 625.963 71.6262 624.607 71.6262Z" fill="#F774B9"/>
<path d="M740.885 175.021C740.885 175.021 736.986 178.581 729.698 183.835C722.409 189.09 689.526 207.904 645.965 209.26C609.522 210.447 556.638 210.108 539.688 173.326C544.434 177.564 568.164 195.022 636.642 191.971C701.391 188.92 729.02 152.478 736.478 140.104C739.529 158.919 740.885 175.021 740.885 175.021Z" fill="#FF8AC7"/>
<path d="M611.217 164.851C610.708 164.851 610.2 164.681 609.861 164.512C608.505 163.664 608.166 162.139 609.013 160.783L614.098 152.308C615.624 149.765 618.336 148.24 621.217 148.07C624.099 147.901 626.98 149.257 628.675 151.63L635.116 160.444C635.964 161.63 635.794 163.325 634.438 164.173C633.252 165.02 631.557 164.851 630.709 163.495L624.268 154.681C623.59 153.664 622.573 153.325 621.387 153.325C620.2 153.325 619.183 154.003 618.675 155.02L613.59 163.495C613.081 164.342 612.234 164.851 611.217 164.851Z" fill="#1C3177"/>
<path d="M576.47 99.9324C576.47 107.899 580.199 114.34 584.606 114.34C589.182 114.34 592.742 107.899 592.742 99.9324C592.742 96.8814 592.233 94 591.216 91.627L577.487 92.8134C576.809 94.8474 576.47 97.3899 576.47 99.9324Z" fill="#1C3177"/>
<path d="M595.454 95.695H578.334C576.809 95.695 575.622 94.5085 575.622 92.983C575.622 91.4575 576.809 90.271 578.334 90.271H595.454C596.979 90.271 598.166 91.4575 598.166 92.983C598.166 94.5085 596.81 95.695 595.454 95.695Z" fill="#1C3177"/>
<path d="M668.678 103.831C668.678 112.815 664.779 120.103 659.864 120.103C654.948 120.103 651.05 112.815 651.05 103.831C651.05 100.272 651.728 97.0511 652.745 94.3391L667.661 95.6951C668.169 98.0681 668.678 100.95 668.678 103.831Z" fill="#1C3177"/>
<path d="M669.864 98.5766H652.745C651.219 98.5766 650.033 97.3901 650.033 95.8646C650.033 94.3391 651.219 93.1526 652.745 93.1526H669.864C671.39 93.1526 672.576 94.3391 672.576 95.8646C672.576 97.3901 671.22 98.5766 669.864 98.5766Z" fill="#1C3177"/>
</svg>
