<svg width="1289" height="345" viewBox="0 0 1289 345" fill="none" xmlns="http://www.w3.org/2000/svg">
<path d="M97.9 7.5H248.4C297.6 7.5 337.5 47.4 337.5 96.6V247.1C337.5 296.3 297.6 336.2 248.4 336.2H97.9C48.7 336.2 8.79999 296.3 8.79999 247.1V96.6C8.79999 47.4 48.7 7.5 97.9 7.5Z" fill="#F4F4F4" stroke="#F4F4F4" stroke-width="2" stroke-miterlimit="10"/>
<path d="M88.0819 208.872L66.4899 125.388C65.7444 122.652 65.8518 119.753 66.7978 117.079C67.7437 114.404 69.4831 112.083 71.7837 110.423C74.0842 108.764 76.8362 107.846 79.6722 107.793C82.5082 107.739 85.293 108.552 87.6546 110.123L115.146 128.439C116.537 129.365 118.112 129.98 119.763 130.242C121.414 130.503 123.102 130.405 124.711 129.955C126.32 129.504 127.813 128.711 129.088 127.63C130.363 126.549 131.389 125.205 132.097 123.691L160.158 63.9954C161.285 61.6044 163.068 59.5831 165.3 58.1674C167.533 56.7517 170.121 56 172.764 56C175.408 56 177.996 56.7517 180.228 58.1674C182.46 59.5831 184.244 61.6044 185.371 63.9954L213.503 123.727C214.211 125.239 215.237 126.581 216.511 127.661C217.784 128.741 219.276 129.533 220.884 129.984C222.492 130.434 224.178 130.533 225.828 130.272C227.477 130.012 229.051 129.399 230.442 128.475L257.945 110.135C260.307 108.564 263.092 107.751 265.928 107.805C268.764 107.858 271.516 108.776 273.816 110.435C276.117 112.095 277.856 114.416 278.802 117.09C279.748 119.765 279.856 122.664 279.11 125.4L257.518 208.884C256.527 212.701 254.297 216.081 251.177 218.493C248.058 220.906 244.226 222.215 240.282 222.214H105.318C101.372 222.214 97.5392 220.903 94.4196 218.489C91.3 216.074 89.0708 212.691 88.0819 208.872V208.872ZM258.859 257.825C258.859 255.464 257.921 253.199 256.252 251.53C254.582 249.86 252.318 248.922 249.957 248.922H95.6433C93.2821 248.922 91.0177 249.86 89.3481 251.53C87.6785 253.199 86.7406 255.464 86.7406 257.825C86.7406 260.186 87.6785 262.451 89.3481 264.12C91.0177 265.79 93.2821 266.728 95.6433 266.728H249.957C252.318 266.728 254.582 265.79 256.252 264.12C257.921 262.451 258.859 260.186 258.859 257.825Z" fill="#EF4444"/>
<path d="M494.879 261.234C487.476 261.234 480.731 260.33 474.644 258.523C468.722 256.715 463.457 254.413 458.851 251.619C454.409 248.825 450.625 245.949 447.499 242.99C444.374 240.032 442.071 237.32 440.59 234.855C438.451 231.896 437.053 229.266 436.395 226.965C435.737 224.664 435.901 222.446 436.888 220.309C438.04 218.008 440.096 215.625 443.058 213.159C446.019 210.529 448.733 209.215 451.201 209.215C453.833 209.05 456.301 209.79 458.604 211.433C461.072 213.077 463.457 215.378 465.76 218.337C469.709 223.596 474.151 227.376 479.086 229.677C484.021 231.814 488.957 232.882 493.892 232.882C500.308 232.882 505.901 232.061 510.672 230.417C515.443 228.609 519.145 225.979 521.777 222.528C524.574 219.076 525.972 214.638 525.972 209.215C525.972 204.777 524.574 201.161 521.777 198.367C519.145 195.408 515.608 192.943 511.166 190.971C506.724 188.834 501.706 186.944 496.113 185.3C490.684 183.492 485.173 181.52 479.579 179.383C475.631 178.068 471.683 176.507 467.735 174.699C463.786 172.727 460.085 170.508 456.63 168.042C453.34 165.577 450.378 162.701 447.746 159.413C445.279 155.962 443.304 152.017 441.824 147.58C440.343 143.142 439.603 137.965 439.603 132.048C439.603 122.679 441.906 114.461 446.512 107.394C451.119 100.162 457.535 94.4913 465.76 90.3823C473.986 86.109 483.363 83.9723 493.892 83.9723C500.637 83.9723 506.642 84.6297 511.906 85.9446C517.335 87.0951 521.941 88.6566 525.725 90.6289C529.674 92.4368 532.882 94.327 535.349 96.2993C537.981 98.1073 539.873 99.6687 541.025 100.984C544.809 104.764 546.865 107.969 547.194 110.599C547.688 113.064 546.207 116.433 542.752 120.707C539.298 125.144 535.925 127.61 532.635 128.103C529.509 128.432 525.972 127.117 522.024 124.158C519.392 121.364 516.759 119.145 514.127 117.502C511.495 115.694 508.534 114.379 505.243 113.557C502.118 112.735 498.252 112.324 493.645 112.324C490.355 112.324 487.147 112.817 484.021 113.804C481.06 114.625 478.51 115.94 476.371 117.748C474.233 119.392 472.505 121.446 471.189 123.912C470.038 126.377 469.462 129.171 469.462 132.294C469.462 136.567 470.613 140.101 472.917 142.895C475.384 145.525 478.675 147.744 482.787 149.552C486.9 151.195 491.507 152.757 496.607 154.236C501.706 155.715 506.889 157.277 512.153 158.92C517.582 160.728 522.929 162.865 528.193 165.33C533.457 167.796 538.146 170.919 542.259 174.699C546.372 178.315 549.662 182.917 552.13 188.505C554.597 193.929 555.831 200.586 555.831 208.475C555.831 217.515 554.104 225.404 550.649 232.143C547.194 238.881 542.506 244.388 536.583 248.661C530.661 252.934 524.08 256.057 516.842 258.029C509.603 260.166 502.282 261.234 494.879 261.234Z" fill="#303031"/>
<path d="M597.24 259.016C592.634 259.016 589.261 258.276 587.123 256.797C585.148 255.482 583.915 253.674 583.421 251.373C582.928 249.072 582.681 246.606 582.681 243.977V96.7924C582.681 93.9983 582.928 91.5329 583.421 89.3962C584.079 87.0951 585.395 85.2872 587.369 83.9723C589.508 82.6574 592.881 82 597.487 82C602.093 82 605.383 82.7396 607.358 84.2188C609.496 85.5337 610.812 87.3417 611.306 89.6427C611.964 91.7794 612.293 94.2448 612.293 97.0389V152.757C615.583 148.977 619.778 145.525 624.878 142.402C630.143 139.115 636.476 137.471 643.879 137.471C653.915 137.471 662.881 139.937 670.777 144.868C678.674 149.634 684.925 156.291 689.532 164.837C694.138 173.384 696.441 183.41 696.441 194.915V244.223C696.441 246.853 696.195 249.318 695.701 251.619C695.207 253.756 693.891 255.482 691.753 256.797C689.779 258.112 686.488 258.769 681.882 258.769C677.276 258.769 673.903 258.112 671.764 256.797C669.626 255.482 668.31 253.756 667.816 251.619C667.323 249.318 667.076 246.689 667.076 243.73V194.669C667.076 188.916 666.089 183.903 664.115 179.63C662.14 175.356 659.179 172.069 655.231 169.768C651.447 167.303 646.676 166.07 640.918 166.07C633.186 166.07 626.688 168.371 621.423 172.973C616.159 177.411 613.116 183.164 612.293 190.231V244.223C612.293 246.853 611.964 249.318 611.306 251.619C610.812 253.92 609.496 255.728 607.358 257.043C605.383 258.358 602.011 259.016 597.24 259.016Z" fill="#303031"/>
<path d="M784.519 260.495C773.825 260.495 764.448 258.769 756.387 255.317C748.49 251.866 741.828 247.182 736.399 241.265C731.134 235.183 727.104 228.445 724.307 221.048C721.675 213.488 720.359 205.681 720.359 197.627C720.359 185.793 723.073 175.274 728.502 166.07C733.931 156.866 741.416 149.634 750.958 144.375C760.664 139.115 771.769 136.485 784.272 136.485C793.156 136.485 800.97 137.882 807.715 140.676C814.46 143.471 820.053 147.169 824.495 151.771C829.102 156.208 832.556 161.139 834.86 166.563C837.327 171.987 838.561 177.247 838.561 182.342C838.561 191.053 836.422 197.381 832.145 201.325C828.032 205.27 822.85 207.242 816.599 207.242H751.452C751.616 212.83 753.343 217.679 756.634 221.788C760.088 225.897 764.366 229.102 769.466 231.403C774.73 233.54 780.077 234.608 785.506 234.608C789.618 234.608 793.238 234.362 796.364 233.869C799.654 233.375 802.45 232.8 804.754 232.143C807.057 231.321 809.031 230.499 810.676 229.677C812.486 228.856 814.131 228.116 815.612 227.458C817.092 226.801 818.491 226.39 819.807 226.226C821.616 226.061 823.426 226.472 825.236 227.458C827.045 228.445 828.526 230.17 829.677 232.636C830.664 234.279 831.323 235.841 831.652 237.32C832.145 238.635 832.392 239.95 832.392 241.265C832.392 244.552 830.418 247.675 826.469 250.633C822.521 253.427 816.928 255.728 809.689 257.536C802.615 259.509 794.225 260.495 784.519 260.495ZM751.452 189.738H802.039C804.836 189.738 806.975 189.327 808.455 188.505C809.936 187.519 810.676 185.547 810.676 182.588C810.676 178.808 809.525 175.439 807.221 172.48C804.918 169.357 801.792 166.974 797.844 165.33C793.896 163.522 789.289 162.619 784.025 162.619C777.938 162.619 772.427 163.851 767.492 166.317C762.556 168.618 758.608 171.823 755.647 175.932C752.85 180.041 751.452 184.643 751.452 189.738Z" fill="#303031"/>
<path d="M880.774 259.016C876.332 259.016 873.042 258.276 870.903 256.797C868.929 255.482 867.695 253.674 867.202 251.373C866.708 249.072 866.461 246.524 866.461 243.73V152.264C866.461 149.305 866.708 146.758 867.202 144.621C867.695 142.32 868.929 140.594 870.903 139.444C873.042 138.129 876.414 137.471 881.021 137.471C885.463 137.471 888.671 138.047 890.645 139.197C892.783 140.348 894.1 141.827 894.593 143.635C895.251 145.279 895.58 146.922 895.58 148.566L893.606 153.003C894.429 151.689 895.58 150.127 897.061 148.319C898.541 146.347 900.516 144.457 902.983 142.649C905.451 140.676 908.412 139.115 911.867 137.965C915.322 136.65 919.435 135.992 924.205 135.992C926.18 135.992 928.236 136.239 930.375 136.732C932.678 137.061 934.899 137.636 937.037 138.458C939.341 139.115 941.397 140.019 943.207 141.17C945.016 142.32 946.415 143.717 947.402 145.361C948.389 146.84 948.882 148.566 948.882 150.538C948.882 155.798 947.566 160.235 944.934 163.851C942.302 167.467 939.176 169.275 935.557 169.275C933.089 169.275 931.279 169.029 930.128 168.535C928.976 168.042 927.989 167.467 927.167 166.81C926.509 166.152 925.439 165.577 923.959 165.084C922.643 164.591 920.504 164.344 917.543 164.344C915.075 164.344 912.525 164.755 909.893 165.577C907.425 166.399 905.122 167.631 902.983 169.275C900.845 170.919 899.117 173.055 897.801 175.685C896.485 178.151 895.827 181.027 895.827 184.314V244.223C895.827 247.017 895.58 249.565 895.087 251.866C894.593 254.003 893.277 255.728 891.138 257.043C889 258.358 885.545 259.016 880.774 259.016Z" fill="#303031"/>
<path d="M990.596 259.016C986.154 259.016 982.864 258.276 980.725 256.797C978.751 255.482 977.517 253.674 977.024 251.373C976.53 249.072 976.283 246.524 976.283 243.73V152.264C976.283 149.305 976.53 146.758 977.024 144.621C977.517 142.32 978.751 140.594 980.725 139.444C982.864 138.129 986.236 137.471 990.843 137.471C995.285 137.471 998.493 138.047 1000.47 139.197C1002.61 140.348 1003.92 141.827 1004.41 143.635C1005.07 145.279 1005.4 146.922 1005.4 148.566L1003.43 153.003C1004.25 151.689 1005.4 150.127 1006.88 148.319C1008.36 146.347 1010.34 144.457 1012.81 142.649C1015.27 140.676 1018.23 139.115 1021.69 137.965C1025.14 136.65 1029.26 135.992 1034.03 135.992C1036 135.992 1038.06 136.239 1040.2 136.732C1042.5 137.061 1044.72 137.636 1046.86 138.458C1049.16 139.115 1051.22 140.019 1053.03 141.17C1054.84 142.32 1056.24 143.717 1057.22 145.361C1058.21 146.84 1058.7 148.566 1058.7 150.538C1058.7 155.798 1057.39 160.235 1054.76 163.851C1052.12 167.467 1049 169.275 1045.38 169.275C1042.91 169.275 1041.1 169.029 1039.95 168.535C1038.8 168.042 1037.81 167.467 1036.99 166.81C1036.33 166.152 1035.26 165.577 1033.78 165.084C1032.46 164.591 1030.33 164.344 1027.36 164.344C1024.9 164.344 1022.35 164.755 1019.71 165.577C1017.25 166.399 1014.94 167.631 1012.81 169.275C1010.67 170.919 1008.94 173.055 1007.62 175.685C1006.31 178.151 1005.65 181.027 1005.65 184.314V244.223C1005.65 247.017 1005.4 249.565 1004.91 251.866C1004.41 254.003 1003.1 255.728 1000.96 257.043C998.822 258.358 995.367 259.016 990.596 259.016Z" fill="#303031"/>
<path d="M1111.4 307.584C1106.13 305.283 1103.09 302.653 1102.27 299.695C1101.44 296.901 1102.18 293.12 1104.49 288.354L1168.15 145.854C1170.46 140.594 1172.92 137.471 1175.56 136.485C1178.19 135.335 1182.22 135.91 1187.65 138.211C1192.75 140.512 1195.71 143.06 1196.53 145.854C1197.52 148.648 1196.94 152.428 1194.81 157.195L1130.65 300.434C1128.51 305.694 1126.12 308.734 1123.49 309.556C1120.86 310.542 1116.83 309.885 1111.4 307.584ZM1134.35 247.182L1077.34 159.66C1074.38 155.222 1073.15 151.524 1073.64 148.566C1074.3 145.607 1076.93 142.731 1081.54 139.937C1086.64 136.814 1090.59 135.581 1093.38 136.239C1096.34 136.896 1099.31 139.526 1102.27 144.128L1147.43 214.392L1134.35 247.182Z" fill="#303031"/>
</svg>
