<svg width="696" height="696" viewBox="0 0 696 696" fill="none" xmlns="http://www.w3.org/2000/svg">
<g clip-path="url(#clip0_621_2685)">
<rect width="696" height="696" fill="white"/>
<path d="M0 50H1368.4V647H0V50ZM334.8 131.6C311.6 168.4 291.5 209 287.7 253C285 281.9 292.9 312.9 314.3 333.4C309.8 317.8 309.9 300.3 317.3 285.6C328.4 261.4 356.2 246.4 382.6 250.6C403.6 253.3 422.6 267.6 431.1 286.9C438 301.4 437.7 318.2 433.6 333.4C447.2 320 455.8 302.1 459 283.3C462.1 260.8 459.7 237.7 453.2 216C437.7 164.6 407.3 119.3 374 77.7C359.7 94.9 346.8 113 334.8 131.6ZM156 206.6C142.8 269.2 143.2 336.7 169 396.1C190 445.3 227.8 485.9 272 515.4C272.1 464.5 271.8 413.6 272.1 362.7C288.7 362.3 305.2 362.8 321.8 362.5C310.7 345.3 297.5 329.6 282.7 315.5C256 289.9 225.7 268.6 197.5 244.8C183 232.8 169.3 219.9 156 206.6ZM366.2 259.5C365.7 262.3 365.2 265.1 364.7 267.8C362.8 268.3 360.9 268.7 359 269.2C357.3 267.1 355.6 265 354 262.9C349.3 265.2 344.8 267.8 340.6 270.8C341.6 273.3 342.6 275.8 343.7 278.3C342.3 279.6 340.9 280.8 339.5 282.1C336.9 281.3 334.2 280.5 331.6 279.7C328.9 283.9 326.4 288.3 324.2 292.8C326.4 294.7 328.7 296.6 331 298.4C329.9 303.5 325.5 304.8 320.8 305.3C320.5 310.3 320.5 315.3 320.7 320.4C323.5 320.9 326.3 321.3 329.1 321.8C329.4 323.8 329.8 325.7 330.1 327.7C328 329.3 326 330.9 323.9 332.5C326.2 337 328.8 341.5 331.6 345.7C333.8 345 335.9 344.3 338.1 343.6C340.7 344.1 343.3 344.9 346 345.2C344.2 343.1 342.5 340.9 340.7 338.8C338.2 339.7 335.6 340.5 333.1 341.4C331.5 338.8 329.9 336.3 328.3 333.7C330.3 331.8 332.4 330 334.4 328.1C333.6 325 332.8 322 332 319C329.2 318.3 326.5 317.6 323.7 316.9C323.9 314.1 323.9 311.3 324.4 308.6C326.8 307.4 329.5 306.9 332.1 306.1C332.9 303.2 333.7 300.3 334.5 297.4C332.4 295.5 330.4 293.5 328.3 291.6C329.8 289.2 331.4 286.7 332.9 284.3C335.5 285 338.2 285.8 340.8 286.5C342.9 284.2 345.1 282 347.3 279.8C346.6 277.1 345.9 274.3 345.2 271.6C347.8 270.2 350.5 268.9 353.2 267.6C354.9 269.6 356.5 271.5 358.2 273.5C361.3 272.6 364.5 271.8 367.6 270.9C368.2 268.3 368.8 265.8 369.4 263.2C372.3 263.2 375.3 263.2 378.2 263.2C378.7 265.8 379.2 268.3 379.7 270.9C382.8 271.7 385.9 272.5 388.9 273.3C390.8 271.4 392.7 269.4 394.6 267.5C397.2 268.9 399.8 270.4 402.4 271.9C401.5 274.5 400.6 277.2 399.7 279.8C402.1 281.9 404.4 284.2 407 286.1C409.6 285.7 412.1 285 414.6 284.5C416.1 286.9 417.6 289.3 419 291.8C417 293.5 415 295.2 413 296.9C413.7 300.1 414.4 303.3 415.1 306.5C417.8 307.1 420.6 307.6 423.3 308.2C423.3 311.1 423.4 314.1 423.4 317C420.6 317.7 417.8 318.4 415 319.2C414.3 322.3 413.7 325.4 413.1 328.4C414.9 330 416.7 331.7 418.5 333.4C417.2 336.1 415.9 338.8 414.5 341.4C411.7 340.5 408.9 339.6 406.1 338.7C404.8 341.2 403.4 343.7 402.5 346.5C404 345.7 406.9 344.1 408.3 343.3C410.8 344.1 413.3 344.9 415.8 345.7C418.5 341.6 421 337.3 423.4 333C419.6 330.3 416.5 326.7 418.1 321.8C420.9 321.4 423.7 321 426.5 320.6C427.1 315.4 427.1 310.1 426.4 304.9C423.8 304.5 421.2 304.2 418.6 303.9C418.1 302 417.6 300 417.1 298C419.2 296.3 421.2 294.5 423.3 292.8C421.1 288.5 418.7 284.2 416 280.2C411.7 281.3 406.9 282.6 403.5 278.8C404.6 276.2 405.7 273.5 406.9 270.9C402.8 267.9 398.3 265.3 393.7 263.1C391.9 265.2 390 267.2 388.2 269.3C386.9 269 384.3 268.3 383 268C382.5 265.3 381.9 262.6 381.4 259.8C376.4 259.3 371.3 259.3 366.2 259.5ZM342.3 316.9C343.2 324.8 347.6 331.8 353.4 337C354.1 332.3 350.6 328.9 348.7 325.1C345.2 319.1 345.2 311.8 346.6 305.2C350.2 291.4 365.2 282 379.2 285.1C394.4 287.4 405.2 304.1 401.3 318.9C399.9 325 396 330 392.9 335.3C394.7 334.5 397.2 334.7 398.3 332.8C406.6 323.1 407.9 308.3 401.6 297.3C395.4 285.9 381.8 279.1 368.9 281.3C352.4 283.4 339.6 300.3 342.3 316.9ZM369.5 295.7C356.5 298.3 351.6 316.9 361.9 325.4C370.6 334.4 387.1 329.7 390.4 317.9C395.3 305.6 382.1 291.8 369.5 295.7ZM340.6 363.5C340 407.7 340.5 451.8 340.3 496C339.7 507.8 345 520.1 355 526.8C368.6 536.5 389.6 533.6 399.7 520.1C405.3 513.4 407.3 504.7 407.3 496.2C407.2 452.1 407.5 408 407.1 364C385 363 362.8 363.6 340.6 363.5ZM475.8 363.5C475.8 432.8 475.8 502.1 475.8 571.4C498 571.2 520.2 571.7 542.4 571.2C542.5 547.8 542.3 524.3 542.5 500.9C565.2 500.9 588 501.1 610.7 500.8C610.8 524.3 610.5 547.8 610.9 571.2C633.1 571.5 655.2 571.5 677.4 571.2C677.9 553.4 677.5 535.6 677.6 517.9C677.5 466.5 677.9 415.2 677.4 363.8C655.3 363.6 633.1 363 611 364C610.2 387.3 610.9 410.6 610.7 433.9C587.9 434.1 565.2 434 542.4 433.9C542.3 410.4 542.4 387 542.3 363.5C520.1 363.5 497.9 363.5 475.8 363.5ZM702.7 363.4C702.7 380 702.7 396.7 702.7 413.3C706.8 413.4 710.9 413.4 715 413.4C715.2 396.7 715.1 380.1 715.1 363.4C711 363.4 706.8 363.4 702.7 363.4ZM733.7 363.4C733.6 380.1 733.6 396.7 733.8 413.4C737.3 413.4 740.8 413.3 744.3 413.3C744.8 402 743.5 390.8 744 379.5C749.1 391.1 755.1 402.3 761.2 413.4C764.9 413.4 768.6 413.4 772.3 413.4C772.4 396.7 772.4 380.1 772.3 363.4C768.8 363.4 765.2 363.4 761.7 363.4C761.4 374.8 762.2 386.2 762.5 397.6C756.8 386.1 750.9 374.8 745 363.4C741.1 363.4 737.3 363.4 733.7 363.4ZM790.8 363.8C790.6 380.3 790.7 396.8 790.7 413.3C800.6 414 811.5 414.7 820.4 409.3C827.8 404.6 830.1 395.3 830 387.1C830 379.4 827.4 370.6 820.2 366.7C811.2 361.8 800.6 363.2 790.8 363.8ZM844.8 363.4C844.8 374 844.7 384.7 844.8 395.3C844.8 400.7 846 406.8 850.6 410.2C856.3 414.3 864 414.5 870.6 413C877.7 411.4 882.2 404.2 882.2 397.2C882.5 385.9 882.3 374.7 882.3 363.4C878.2 363.4 874.2 363.4 870.1 363.4C870 375.3 870.3 387.1 870 399C869.9 402.4 867.5 406.5 863.6 405.8C858.8 406.7 856.7 401.2 856.9 397.4C856.6 386.1 857.1 374.7 856.8 363.4C852.9 363.4 848.8 363.4 844.8 363.4ZM904.8 366C899.1 369.1 895.8 377 899.6 382.8C903.5 389.4 911.7 390.9 917.2 395.7C920.4 398.3 919.1 403.9 915.3 405.1C909.9 406.4 904.3 405.4 898.9 404.6C898.4 407.1 897.8 409.7 897.3 412.2C907 414.3 918.8 415.2 926.8 408.2C933.5 402.6 931.6 391.3 924.1 387.3C919.5 383.4 910.1 382.9 910 375.5C912.4 368.7 921.3 370.7 926.8 372C927.3 369.4 927.8 366.8 928.2 364.2C920.5 362.6 911.9 362 904.8 366ZM940.9 363.3C940.9 366.1 940.9 368.9 940.9 371.7C944.8 371.8 948.7 371.8 952.7 371.8C952.8 385.6 952.7 399.4 952.8 413.3C956.8 413.3 960.8 413.3 964.9 413.4C964.9 399.5 964.8 385.7 965 371.8C968.9 371.8 972.7 371.8 976.6 371.8C976.6 369 976.7 366.2 976.7 363.4C964.7 363.4 952.8 363.4 940.9 363.3ZM990.6 363.8C990.3 380.3 990.5 396.8 990.5 413.4C994.5 413.5 998.4 413.5 1002.4 413.5C1002.7 406.5 1002.5 399.6 1002.7 392.6C1005.9 393.1 1010 393.4 1011.3 397.1C1013.2 402.4 1013.9 408 1015.6 413.3C1019.8 413.4 1024 413.4 1028.3 413.3C1025.2 405.1 1025.4 395 1017.7 389.4C1020.3 387.4 1023.7 385.8 1025.3 382.7C1028.5 377.1 1026.6 368.8 1020.5 366C1011.1 361.7 1000.4 363.4 990.6 363.8ZM1042.8 363.4C1042.7 380 1042.8 396.6 1042.8 413.2C1046.8 413.3 1050.9 413.4 1054.9 413.4C1054.9 396.7 1054.8 380.1 1054.9 363.4C1050.9 363.4 1046.9 363.4 1042.8 363.4ZM1068.7 413.3C1072.5 413.4 1076.3 413.5 1080.2 413.4C1081.2 409.5 1082.2 405.7 1083.3 401.8C1087.4 401.8 1091.6 401.8 1095.8 401.8C1096.8 405.6 1097.8 409.4 1098.9 413.2C1102.8 413.3 1106.7 413.2 1110.6 413.2C1105.7 396.7 1102.6 379.7 1097.4 363.4C1092.6 363.1 1087.8 363.3 1083 363.3C1077.9 380 1073.3 396.6 1068.7 413.3ZM1124.8 363.4C1124.8 380.1 1124.7 396.8 1124.9 413.5C1134.5 413.7 1144.1 413.7 1153.7 413.5C1153.8 410.9 1153.8 408.3 1153.9 405.7C1148.2 405.7 1142.5 405.7 1136.9 405.5C1136.8 391.5 1136.9 377.5 1136.8 363.5C1132.8 363.4 1128.7 363.4 1124.8 363.4ZM18.5 416.9C38.8 431 55.7 449.3 71 468.6C104.6 510.8 132.6 558.4 174.9 592.8C203.9 616.6 240.7 631.3 278.4 631.7C306 632.3 334.3 630.1 360.2 619.8C381.3 611.8 399.6 598.4 419.9 588.9C436.9 580.5 455.2 575.2 473.6 571.5C462.1 567.6 450 564.9 437.8 565C423.4 564.8 409.3 568.2 395.2 570.5C373.4 574.7 351 575.4 329.1 571.8C318 569.8 306.8 568 296.6 563C278.9 554.5 264 541.3 250.2 527.6C219 496.9 191.5 462 156.2 435.6C139.9 423.7 122 413.5 102.3 408.7C74.4 401.2 44.6 405.6 18.5 416.9ZM702.6 440.8C702.7 452 702.5 463.2 702.7 474.4C702.7 479.6 705 484.8 708.9 488.3C714.4 492.2 721.6 492.1 728 491C735 489.7 739.8 482.9 740.1 476C740.8 464.3 740.2 452.6 740.3 440.9C736.2 440.9 732.2 440.9 728.1 440.9C727.8 453.2 728.4 465.5 727.8 477.8C728.1 482.8 721.7 485.6 717.9 482.8C715 480.3 714.8 476.2 714.7 472.7C714.6 462.1 714.7 451.5 714.7 440.9C710.7 440.8 706.6 440.8 702.6 440.8ZM758.5 440.8C758.3 457.6 758.3 474.4 758.5 491.2C762 491.2 765.4 491.2 768.9 491.2C769.2 479.8 768.5 468.5 768.9 457.2C773.6 468.9 780.1 479.7 785.7 490.9C789.4 491 793.1 491.2 796.9 491.3C797 474.5 797 457.6 796.9 440.8C793.4 440.8 789.9 440.9 786.4 441C786.2 452.5 786.8 464 787.2 475.5C781.2 464.1 775.9 452.3 769.4 441.2C765.8 440.6 762.1 440.8 758.5 440.8ZM815.5 440.9C815.5 457.6 815.4 474.3 815.5 491C819.5 491.1 823.6 491.1 827.7 491C827.7 474.3 827.8 457.6 827.7 440.8C823.6 440.8 819.6 440.8 815.5 440.9ZM840.7 440.9C845.4 457.7 850.3 474.5 855.3 491.2C859.9 491.1 864.5 491.1 869 491C873.9 474.3 879.1 457.7 883.9 441C879.5 440.8 875.1 440.8 870.7 440.9C867.7 454 865.6 467.3 862.2 480.3C859.7 467.1 856.9 454 853.9 440.9C849.5 440.8 845.1 440.8 840.7 440.9ZM896.7 440.8C896.7 457.6 896.7 474.4 896.7 491.1C906.4 491.1 916.1 491.1 925.7 491.1C925.7 488.5 925.7 485.8 925.7 483.2C920.1 483.2 914.5 483.3 908.9 483.1C908.6 478.3 908.5 473.6 908.8 468.8C913.7 468.7 918.7 468.7 923.7 468.6C923.7 466.1 923.7 463.6 923.6 461.1C918.7 461 913.8 461 908.8 461C908.8 457 908.8 452.9 908.9 448.9C914.1 448.9 919.3 448.9 924.5 448.9C924.5 446.2 924.5 443.5 924.6 440.8C915.4 440.8 906.1 440.9 896.7 440.8ZM941.7 441.5C941.7 458 941.6 474.6 941.7 491.1C945.7 491.1 949.7 491.1 953.7 491.1C954.1 484.2 953.9 477.3 954 470.4C956.6 471.3 960.4 470.5 961.8 473.4C964.9 478.6 964.6 485.1 966.8 490.7C971 491.5 975.3 491.2 979.5 491.3C976.4 483.1 976.9 472.7 968.7 467.4C971.3 465.5 974.4 464 976.2 461.1C979.8 455.4 977.9 446.5 971.4 443.8C962.2 439.2 951.5 440.6 941.7 441.5ZM1000.3 442.8C994 445.2 989.2 453 992.7 459.4C996 466.3 1003.9 468.4 1009.8 472.4C1013 474.4 1013.8 479.3 1010.6 481.7C1005.3 485.3 998.4 483.2 992.6 482.3C992 484.8 991.3 487.3 990.8 489.9C999.8 491.9 1010 492.9 1018.2 487.8C1023.7 484.6 1026.7 477.1 1023.4 471.3C1019.2 462.6 1007.4 462.7 1002.8 454.3C1006 447.3 1014.3 448 1020.5 449.7C1021 447.1 1021.5 444.5 1021.9 441.9C1014.8 440.4 1007 439.6 1000.3 442.8ZM1039.1 440.8C1039.1 457.6 1039.1 474.4 1039.1 491.1C1043.1 491.1 1047.1 491.1 1051.1 491.1C1051.5 474.4 1051.2 457.6 1051.2 440.9C1047.2 440.9 1043.1 440.8 1039.1 440.8ZM1065 440.9C1065 443.7 1064.9 446.5 1064.9 449.4C1068.8 449.4 1072.8 449.5 1076.8 449.6C1076.9 463.5 1076.7 477.4 1076.9 491.2C1080.9 491.2 1084.9 491.2 1088.9 491.2C1089.2 477.3 1088.8 463.4 1089.1 449.5C1093 449.4 1096.8 449.4 1100.7 449.4C1100.7 446.6 1100.6 443.7 1100.6 440.9C1088.7 440.9 1076.8 440.8 1065 440.9ZM1110.9 440.9C1114.7 449.6 1118.8 458.1 1122.8 466.6C1127 474.1 1124.5 483 1125.1 491.1C1129.1 491.1 1133.2 491.1 1137.2 491.1C1137.4 484.5 1136.7 477.8 1137.6 471.2C1141.9 460.9 1147.4 451.1 1151.9 440.8C1147.8 440.7 1143.6 440.7 1139.5 440.7C1137.1 448.3 1134.4 455.8 1132 463.4C1129.5 455.7 1126.3 448.3 1123.7 440.7C1119.4 440.8 1115.2 440.8 1110.9 440.9ZM1191.1 441.2C1175.2 446.5 1173.2 467.5 1179 481C1183.9 492.4 1199.8 494.7 1209.2 487.9C1215.8 482.8 1217.5 473.8 1217.7 466C1217.7 458 1215.9 448.9 1209.1 443.9C1204.1 439.9 1197.1 439.9 1191.1 441.2ZM1232.9 440.9C1232.7 457.6 1232.8 474.2 1232.9 490.9C1236.9 491.1 1240.9 491.2 1244.9 491.3C1245 484.3 1244.9 477.3 1245 470.3C1249.9 470.1 1254.9 470.2 1259.8 470.2C1259.8 467.8 1259.8 465.4 1259.9 463C1255 462.9 1250 462.9 1245.1 462.6C1245 458.1 1245 453.6 1245.1 449.1C1250.3 449 1255.6 449.1 1260.9 449C1260.9 446.4 1261 443.7 1261 441.1C1251.6 440.9 1242.2 440.7 1232.9 440.9ZM702.7 518.1C702.6 534.8 702.7 551.5 702.7 568.2C706.8 568.2 711 568.2 715.1 568.2C715.1 561.1 714.9 554 715.3 546.9C719.9 546.8 724.6 546.8 729.3 547C729.4 554.1 729.3 561.1 729.3 568.2C733.3 568.3 737.4 568.3 741.4 568.4C741.4 551.7 741.5 535 741.4 518.3C737.4 518.3 733.3 518.3 729.3 518.5C729.3 525.2 729.4 531.9 729.2 538.6C724.5 538.7 719.8 538.7 715.1 538.6C714.9 531.8 715.1 525.1 714.9 518.3C710.9 518.1 706.8 518.1 702.7 518.1ZM772 518.3C763.7 520.4 758.5 528.5 757.1 536.6C755.6 545.7 756.9 555.9 763 563.1C770.2 570.5 783 570.6 790.9 564.2C796.6 558.8 798.2 550.6 798.4 543.1C798.5 535.5 796.7 527.2 790.9 521.8C785.9 517.2 778.4 516.8 772 518.3ZM823 520.8C808.1 528.3 806 551.2 817.3 562.6C824.5 569.3 835.1 569 844.2 567.9C844 565.3 843.8 562.8 843.6 560.2C838 560.5 831.1 561.2 827.2 556.4C821.7 549.3 821.9 538.4 826.5 530.9C830.2 525.2 837.4 525.2 843.4 525.8C843.9 523.3 844.5 520.9 845 518.5C837.7 517.3 829.7 517.2 823 520.8ZM858.8 518.1C858.2 534.8 858.6 551.4 858.5 568.1C862.5 568.2 866.6 568.2 870.7 568.2C870.7 561.1 870.6 554 870.8 546.9C875.5 546.8 880.2 546.8 884.9 546.9C885.1 554 885 561.1 885 568.2C889 568.2 893 568.2 897.1 568.2C897.1 551.5 897.2 534.8 897 518.2C893 518.1 889 518.1 885.1 518.1C885 524.8 885.1 531.5 884.9 538.3C880.2 538.4 875.5 538.4 870.8 538.4C870.6 531.7 870.7 524.9 870.7 518.2C866.7 518.1 862.7 518.1 858.8 518.1ZM915.5 518.1C915.5 534.8 915.5 551.5 915.5 568.2C919.5 568.2 923.6 568.1 927.6 568.1C927.6 551.4 927.6 534.8 927.6 518.2C923.5 518.1 919.5 518.1 915.5 518.1ZM948.3 518.1C946.4 534.8 945.1 551.5 943.6 568.2C947 568.2 950.4 568.2 953.8 568.2C954.6 556.7 955.3 545.2 956.9 533.8C959.2 545.2 963.2 556.1 966.4 567.2C969.3 567.2 972.1 567.2 975 567.2C978.2 556.1 982.7 545.3 984.9 533.9C985.8 545.3 987.1 556.7 987.6 568.1C991.2 568.2 994.7 568.2 998.3 568.2C997.1 551.5 995.9 534.8 994.4 518.2C990.1 518.1 985.8 518.1 981.5 518.1C978.1 530 974.1 541.8 972.2 554.1C967.3 542.5 965.1 530.1 961.1 518.2C956.9 518.1 952.6 518.1 948.3 518.1ZM1014.9 518.2C1014.7 534.9 1014.8 551.5 1014.8 568.2C1018.8 568.3 1022.9 568.3 1027 568.3C1027 551.6 1027.1 534.9 1027 518.2C1022.9 518.1 1018.9 518.1 1014.9 518.2ZM1045.6 518C1045.4 534.7 1045.6 551.4 1045.5 568.2C1049 568.2 1052.6 568.2 1056.1 568.2C1056.4 556.8 1055.7 545.4 1055.8 534.1C1060.9 545.8 1067.1 557 1073 568.2C1076.7 568.2 1080.4 568.2 1084.2 568.2C1084.3 551.5 1084.3 534.8 1084.2 518.1C1080.7 518.1 1077.1 518.2 1073.6 518.3C1073 529.8 1074.1 541.3 1074.4 552.8C1068.5 541.3 1063.1 529.5 1056.5 518.5C1052.8 517.9 1049.2 518.1 1045.6 518ZM1102.7 518.1C1102.5 534.8 1102.6 551.5 1102.6 568.2C1106.7 568.2 1110.8 568.2 1114.8 568.2C1114.8 561.1 1114.6 553.9 1114.9 546.8C1119.5 546.8 1124.1 546.7 1128.7 546.9C1128.7 554 1128.7 561.1 1128.8 568.2C1132.8 568.2 1136.8 568.2 1140.9 568.2C1140.9 551.5 1141 534.8 1140.8 518C1136.8 518 1132.8 518 1128.8 518.1C1128.6 524.8 1128.7 531.5 1128.7 538.2C1124.1 538.2 1119.5 538.3 1114.9 538.5C1114.7 531.7 1114.8 524.9 1114.7 518.1C1110.7 518.1 1106.7 518.1 1102.7 518.1ZM1181.8 522.5C1170.7 530.3 1169.3 546.9 1175.4 558.2C1181.4 568.6 1195 569.7 1205.6 567.8C1205.5 565.3 1205.3 562.7 1205.2 560.2C1198.5 560.9 1190 560.7 1186.8 553.6C1183.4 545.5 1183.5 534.1 1190.8 528.1C1194.8 524.8 1200.2 525.6 1204.9 525.9C1205.5 523.4 1206 520.9 1206.6 518.5C1198.3 517 1188.9 517.3 1181.8 522.5ZM1220.3 518C1220.1 534.7 1220.3 551.5 1220.2 568.2C1224.2 568.2 1228.2 568.2 1232.2 568.1C1232.4 551.4 1232.4 534.8 1232.2 518.2C1228.3 518.1 1224.3 518.1 1220.3 518ZM1246.2 518.2C1246.2 520.9 1246.3 523.7 1246.3 526.4C1250.1 526.4 1254 526.5 1257.8 526.6C1257.8 540.5 1257.7 554.3 1257.8 568.2C1261.8 568.2 1265.8 568.2 1269.9 568.2C1270 554.3 1269.8 540.5 1270 526.7C1273.9 526.6 1277.7 526.6 1281.6 526.5C1281.6 523.7 1281.6 520.9 1281.6 518.2C1269.8 518.1 1258 517.9 1246.2 518.2ZM1292 518.1C1295.8 526.7 1299.9 535.2 1303.9 543.8C1308 551.2 1305.6 560 1306.2 568.1C1310.2 568.2 1314.2 568.3 1318.3 568.3C1318.9 560.3 1316.4 551.5 1320.5 544.1C1324.7 535.5 1328.9 526.9 1332.9 518.2C1328.8 518.2 1324.6 518.2 1320.5 518.3C1317.8 525.7 1315.6 533.3 1313 540.7C1310.3 533.2 1307.5 525.8 1304.7 518.4C1300.6 518.1 1296.3 518.1 1292 518.1Z" fill="white"/>
<path d="M334.8 131.6C346.8 113 359.7 94.9 373.9 77.8C407.2 119.3 437.6 164.7 453.1 216.1C459.6 237.9 462.1 260.9 458.9 283.4C455.7 302.2 447.1 320 433.5 333.5C437.6 318.2 437.9 301.5 431 287C422.5 267.6 403.5 253.4 382.5 250.7C356.2 246.5 328.4 261.5 317.2 285.7C309.8 300.5 309.8 317.9 314.2 333.5C292.8 313 284.9 282 287.6 253.1C291.5 209 311.5 168.4 334.8 131.6Z" fill="#FE0000"/>
<path d="M156 206.6C169.3 219.9 183 232.8 197.5 244.9C225.7 268.7 256 290 282.7 315.6C297.4 329.7 310.7 345.4 321.8 362.6C305.2 362.9 288.7 362.4 272.1 362.8C271.8 413.7 272.1 464.6 272 515.5C227.8 486 190.1 445.3 169 396.2C143.2 336.7 142.8 269.2 156 206.6Z" fill="#FE0000"/>
<path d="M18.5 416.9C44.6 405.6 74.4 401.2 102.2 408.6C121.9 413.4 139.9 423.7 156.1 435.5C191.4 461.9 218.8 496.8 250.1 527.5C264 541.2 278.8 554.4 296.5 562.9C306.7 567.8 317.9 569.7 329 571.7C350.9 575.3 373.3 574.6 395.1 570.4C409.2 568.1 423.3 564.7 437.7 564.9C449.9 564.8 462 567.5 473.5 571.4C455 575.2 436.7 580.5 419.8 588.8C399.5 598.4 381.1 611.8 360.1 619.7C334.2 630 306 632.2 278.3 631.6C240.6 631.2 203.8 616.5 174.8 592.7C132.5 558.2 104.5 510.6 70.9 468.5C55.7 449.3 38.8 431 18.5 416.9Z" fill="#FE0000"/>
<path d="M366.2 259.5C371.3 259.3 376.4 259.3 381.4 259.8C381.9 262.5 382.5 265.2 383 268C384.3 268.3 386.9 269 388.2 269.3C390 267.2 391.9 265.2 393.7 263.1C398.3 265.3 402.8 267.9 406.9 270.9C405.8 273.5 404.6 276.2 403.5 278.8C406.9 282.6 411.7 281.2 416 280.2C418.7 284.2 421.1 288.5 423.3 292.8C421.2 294.5 419.2 296.3 417.1 298C417.6 299.9 418.1 301.9 418.6 303.9C421.2 304.3 423.8 304.6 426.4 304.9C427.2 310.1 427.1 315.3 426.5 320.6C423.7 321 420.9 321.4 418.1 321.8C416.5 326.7 419.6 330.3 423.4 333C421 337.3 418.5 341.6 415.8 345.7C413.3 344.9 410.8 344.1 408.3 343.3C406.8 344.1 403.9 345.7 402.5 346.5C403.4 343.8 404.8 341.3 406.1 338.7C408.9 339.6 411.7 340.5 414.5 341.4C415.9 338.7 417.3 336.1 418.5 333.4C416.7 331.7 414.9 330.1 413.1 328.4C413.7 325.3 414.4 322.2 415 319.2C417.8 318.5 420.6 317.7 423.4 317C423.4 314.1 423.4 311.1 423.3 308.2C420.6 307.6 417.8 307 415.1 306.5C414.4 303.3 413.6 300.1 413 296.9C415 295.2 417 293.5 419 291.8C417.5 289.4 416.1 286.9 414.6 284.5C412.1 285.1 409.6 285.7 407 286.1C404.4 284.3 402.1 281.9 399.7 279.8C400.6 277.2 401.5 274.5 402.4 271.9C399.8 270.4 397.2 268.9 394.6 267.5C392.7 269.4 390.8 271.4 388.9 273.3C385.8 272.4 382.7 271.6 379.7 270.9C379.2 268.3 378.7 265.8 378.2 263.2C375.3 263.2 372.3 263.2 369.4 263.2C368.8 265.7 368.2 268.3 367.6 270.9C364.5 271.7 361.3 272.6 358.2 273.5C356.5 271.5 354.9 269.6 353.2 267.6C350.5 268.9 347.8 270.2 345.2 271.6C345.9 274.4 346.6 277.1 347.3 279.8C345.1 282 342.9 284.3 340.8 286.5C338.2 285.8 335.5 285 332.9 284.3C331.3 286.7 329.8 289.1 328.3 291.6C330.4 293.6 332.4 295.5 334.5 297.4C333.7 300.3 332.8 303.2 332.1 306.1C329.5 306.9 326.9 307.5 324.4 308.6C323.9 311.4 323.9 314.1 323.7 316.9C326.5 317.6 329.2 318.3 332 319C332.8 322 333.6 325.1 334.4 328.1C332.4 329.9 330.3 331.8 328.3 333.7C329.9 336.3 331.5 338.9 333.1 341.4C335.6 340.5 338.2 339.7 340.7 338.8C342.4 340.9 344.2 343.1 346 345.2C343.3 344.9 340.8 344 338.1 343.6C335.9 344.4 333.8 345 331.6 345.7C328.7 341.5 326.2 337 323.9 332.5C325.9 330.9 328 329.3 330.1 327.7C329.8 325.7 329.4 323.8 329.1 321.8C326.3 321.3 323.5 320.9 320.7 320.4C320.4 315.4 320.5 310.3 320.8 305.3C325.4 304.8 329.8 303.5 331 298.4C328.7 296.5 326.5 294.6 324.2 292.8C326.4 288.3 328.8 283.9 331.6 279.7C334.2 280.5 336.9 281.3 339.5 282.1C340.9 280.8 342.3 279.6 343.7 278.3C342.7 275.8 341.6 273.3 340.6 270.8C344.9 267.8 349.4 265.2 354 262.9C355.7 265 357.4 267.1 359 269.2C360.9 268.7 362.8 268.2 364.7 267.8C365.2 265 365.7 262.3 366.2 259.5Z" fill="#EC3436"/>
<path d="M342.3 316.9C339.7 300.4 352.4 283.4 369 281.3C381.9 279.1 395.5 285.9 401.7 297.3C408 308.3 406.7 323.1 398.4 332.8C397.2 334.7 394.8 334.5 393 335.3C396 330 400 325 401.4 318.9C405.3 304.1 394.4 287.4 379.3 285.1C365.3 282 350.3 291.4 346.7 305.2C345.3 311.8 345.3 319.1 348.8 325.1C350.7 328.9 354.3 332.3 353.5 337C347.6 331.7 343.2 324.7 342.3 316.9Z" fill="#EC3237"/>
<path d="M369.5 295.7C382 291.8 395.2 305.6 390.4 317.9C387.1 329.7 370.5 334.4 361.9 325.4C351.6 316.9 356.5 298.3 369.5 295.7Z" fill="#EC3237"/>
<path d="M340.6 363.5C362.8 363.7 385 363 407.2 363.9C407.5 408 407.2 452.1 407.4 496.1C407.5 504.6 405.4 513.4 399.8 520C389.7 533.4 368.7 536.4 355.1 526.7C345.1 520 339.8 507.8 340.4 495.9C340.5 451.8 340 407.6 340.6 363.5Z" fill="#39418A"/>
<path d="M475.8 363.5C498 363.5 520.2 363.5 542.3 363.5C542.4 386.9 542.3 410.4 542.4 433.9C565.2 434 587.9 434.1 610.7 433.9C611 410.6 610.3 387.3 611 364C633.1 363 655.3 363.5 677.4 363.8C677.8 415.2 677.5 466.5 677.6 517.9C677.5 535.7 677.9 553.5 677.4 571.2C655.2 571.4 633.1 571.5 610.9 571.2C610.5 547.7 610.8 524.2 610.7 500.8C587.9 501.1 565.2 500.9 542.5 500.9C542.3 524.3 542.5 547.8 542.4 571.2C520.2 571.7 498 571.3 475.8 571.4C475.8 502 475.7 432.8 475.8 363.5Z" fill="#39418A"/>
</g>
<defs>
<clipPath id="clip0_621_2685">
<rect width="696" height="696" fill="white"/>
</clipPath>
</defs>
</svg>
